PathFileType	4	(X/Y/Z)	Kaydara	
DataRate	CameraRate	NumFrames	NumMarkers	Units	OrigDataRate	OrigDataStartFrame	OrigNumFrames	
240.00	240.00	4	72	mm	240.00	311	355	
Frame#	Time	Hips			RightUpLeg			RightLeg			RightFoot			RightFoot_End			LeftUpLeg			LeftLeg			LeftFoot			LeftFoot_End			Spine			Spine1			Spine2			Spine3			Neck			Head			Head_End			RightShoulder			RightArm			RightForeArm			RightHand			RightHandThumb1			RightHandThumb2			RightHandThumb3			RightHandThumb3_End			RightInHandIndex			RightHandIndex1			RightHandIndex2			RightHandIndex3			RightHandIndex3_End			RightInHandMiddle			RightHandMiddle1			RightHandMiddle2			RightHandMiddle3			RightHandMiddle3_End			RightInHandRing			RightHandRing1			RightHandRing2			RightHandRing3			RightHandRing3_End			RightInHandPinky			RightHandPinky1			RightHandPinky2			RightHandPinky3			RightHandPinky3_End			LeftShoulder			LeftArm			LeftForeArm			LeftHand			LeftHandThumb1			LeftHandThumb2			LeftHandThumb3			LeftHandThumb3_End			LeftInHandIndex			LeftHandIndex1			LeftHandIndex2			LeftHandIndex3			LeftHandIndex3_End			LeftInHandMiddle			LeftHandMiddle1			LeftHandMiddle2			LeftHandMiddle3			LeftHandMiddle3_End			LeftInHandRing			LeftHandRing1			LeftHandRing2			LeftHandRing3			LeftHandRing3_End			LeftInHandPinky			LeftHandPinky1			LeftHandPinky2			LeftHandPinky3			LeftHandPinky3_End			
		X1	Y1	Z1	X2	Y2	Z2	X3	Y3	Z3	X4	Y4	Z4	X5	Y5	Z5	X6	Y6	Z6	X7	Y7	Z7	X8	Y8	Z8	X9	Y9	Z9	X10	Y10	Z10	X11	Y11	Z11	X12	Y12	Z12	X13	Y13	Z13	X14	Y14	Z14	X15	Y15	Z15	X16	Y16	Z16	X17	Y17	Z17	X18	Y18	Z18	X19	Y19	Z19	X20	Y20	Z20	X21	Y21	Z21	X22	Y22	Z22	X23	Y23	Z23	X24	Y24	Z24	X25	Y25	Z25	X26	Y26	Z26	X27	Y27	Z27	X28	Y28	Z28	X29	Y29	Z29	X30	Y30	Z30	X31	Y31	Z31	X32	Y32	Z32	X33	Y33	Z33	X34	Y34	Z34	X35	Y35	Z35	X36	Y36	Z36	X37	Y37	Z37	X38	Y38	Z38	X39	Y39	Z39	X40	Y40	Z40	X41	Y41	Z41	X42	Y42	Z42	X43	Y43	Z43	X44	Y44	Z44	X45	Y45	Z45	X46	Y46	Z46	X47	Y47	Z47	X48	Y48	Z48	X49	Y49	Z49	X50	Y50	Z50	X51	Y51	Z51	X52	Y52	Z52	X53	Y53	Z53	X54	Y54	Z54	X55	Y55	Z55	X56	Y56	Z56	X57	Y57	Z57	X58	Y58	Z58	X59	Y59	Z59	X60	Y60	Z60	X61	Y61	Z61	X62	Y62	Z62	X63	Y63	Z63	X64	Y64	Z64	X65	Y65	Z65	X66	Y66	Z66	X67	Y67	Z67	X68	Y68	Z68	X69	Y69	Z69	X70	Y70	Z70	X71	Y71	Z71	X72	Y72	Z72	

311	1.292	5921.0129	906.651	56.2195	5914.531326101187	858.8375025241482	-15.809050370752894	5855.878159251948	447.05595520893866	-61.913291194519346	5960.2658445632105	96.3726506267663	-190.77667023657742	5888.832911710251	16.54341921222749	-32.47091428953779	5932.665448524164	925.5482033190762	140.96508899758362	5886.559851653668	527.0953039346407	261.24493119518337	5789.288842350081	99.11919034145764	298.95725172602	5675.527058122371	5.50708466491006	177.52716214515812	5897.635692635015	1036.8653902191174	1.6772172385357518	5847.722575284214	1111.1446971735504	-36.10768344053353	5789.314387411383	1184.2920751845763	-73.97274167947309	5724.259432150716	1247.408160384853	-107.57154582583605	5654.053571075304	1314.4093702866205	-142.77265079547468	5589.9196401979725	1376.074242418663	-173.47065001820678	5465.986409754309	1471.7147154263644	-201.98329601866558	5668.497900496804	1273.8289999854371	-146.96700992380758	5609.348154662445	1196.4485383976112	-159.42927292643535	5681.552879127088	1108.6755917560145	40.02971482193931	5660.380754353028	1089.7487859044877	208.49243682827995	5686.995381065764	1120.3068005231928	228.70869060303352	5714.23274652771	1121.1895056922942	241.64542984265273	5730.442943246974	1117.6682359212043	250.90726096301958	5741.5973662225315	1111.1944736956727	258.84461712570453	5678.982708828466	1110.3988867116707	232.67570180822645	5699.643709212505	1117.457568326158	265.3469954635258	5717.056658257034	1111.0732204066512	281.63902432194976	5730.191496696457	1103.7248074140573	285.48965030907954	5742.620837733715	1095.363106312927	284.4420237560399	5670.906778997481	1098.3670477777937	231.91952349462068	5686.689759623942	1098.747069723416	263.3789440712155	5704.561918850338	1090.1558968710322	280.94299019146763	5719.86693574037	1080.510708176463	285.4860130742965	5733.203553719348	1070.9824962338778	284.2898300592251	5664.629166599821	1089.7754961576684	230.62515117524393	5673.193562117158	1082.918586988316	257.9107521332529	5687.59284829272	1073.768418278998	272.9507229576129	5701.730089994762	1063.582206660888	277.19000395117627	5713.973384211729	1054.2050087922578	275.9975986503962	5657.1476985899935	1078.96709718159	227.607117408169	5660.247183560612	1066.3158023562446	251.03016626912438	5669.902528361731	1056.4249108932866	262.5345417032902	5679.307250722501	1047.7548608075908	265.36592116541703	5689.630811622722	1038.7344487682528	264.1595689221147	5687.2259352885885	1311.509443632781	-114.9225085492857	5744.09866134508	1365.6245734466577	-49.03584663115963	5828.431627093556	1156.3637098282952	24.22650295269105	5722.261737660543	1020.9712511816854	116.63044382084665	5752.043124024903	1049.3918914383576	122.3017974611841	5772.049249109651	1052.0006937812307	146.12339440013503	5785.109068029272	1049.2687459109602	162.87867515381026	5795.250115014934	1043.0999298372994	176.98876929088613	5752.880890020787	1037.2249863856773	121.71949682236429	5791.100252538471	1038.5605661042055	137.46465282802103	5811.111770309986	1031.3095429337247	157.48858942029574	5817.683187251437	1025.913019765989	173.55735694789854	5819.163027914366	1020.8469530010342	189.29919794745064	5748.864700675907	1024.4178934038982	122.05371020487033	5783.972236321496	1018.7955449921128	137.58925306417652	5805.146660035238	1009.17882048133	159.44370203312093	5812.757081181678	1001.8502117600066	178.83217452578288	5814.221818884126	995.9094021008041	196.05762415883694	5745.12073474736	1015.3891926710176	121.80019383835116	5773.53526444744	1002.6696873642459	135.24605298392106	5791.258125707697	992.5538925909857	154.2754073813474	5798.209784294573	984.5641077730451	172.96701139757	5799.402566781575	978.5419217896801	189.1584844514937	5739.156610704451	1004.522231686346	121.74387450609467	5761.784487939324	986.3368053874727	133.7519303638175	5774.708552210302	975.5865682829848	148.90220575453324	5779.1658723033215	968.4769477723503	162.49350269124838	5779.869549584974	962.4045568618833	176.81208994724673
312	1.296	5921.0129	906.651	56.2195	5914.373982842463	858.8229419369806	-15.770341249698975	5855.984837597359	446.9977957697175	-61.84065283866583	5960.589449069245	96.44157336456473	-190.9142856572687	5889.218867439959	16.58058403587035	-32.59668405406761	5932.831819466258	925.5626038573395	140.92266767878797	5886.679642038266	527.1236500013543	261.230540180408	5789.327634892744	99.16846944442617	298.9217992445596	5675.561985857016	5.561615724387048	177.49125909604558	5897.600152311664	1036.866850745268	1.693595262433167	5847.684540138584	1111.186304552944	-36.01081710198232	5789.278402898685	1184.3814697723285	-73.78273756249426	5724.231210818649	1247.5462671518817	-107.28133019479493	5654.031966674594	1314.5972889528614	-142.3739306617437	5589.909945996232	1376.3116166527168	-172.97013011177046	5465.919616006115	1471.916847822082	-201.2993398179552	5668.461225515297	1274.0392254452222	-146.56167763903582	5609.655077513201	1197.2511490409804	-158.99430699659194	5682.780119184764	1110.59084863892	40.03426521455691	5662.566603603598	1095.4319134221641	208.38473310471224	5689.479131222001	1126.3088226481573	227.66599555675197	5716.525605391764	1127.3866290193075	240.34342104470852	5732.573656229224	1124.038307457813	249.5430649052805	5743.567917806756	1117.7404452295636	257.52986515372606	5681.434143558276	1116.5949233538888	231.92782895799405	5702.197532725138	1124.4371256821657	264.2497107960553	5719.441048884195	1118.427978398292	280.53265833432283	5732.354286543924	1111.1284823438777	284.43678954306347	5744.5217847860795	1102.6829230693822	283.47334845798093	5673.263766147291	1104.6285812650815	231.51696365580597	5689.0955957076	1105.8083013669655	262.8222916133965	5706.769774923581	1097.6324354552553	280.42341732344636	5721.801154389668	1088.049088217126	285.0535410881079	5734.848213906893	1078.430493365387	283.96043406245894	5666.919087026087	1096.0654338476857	230.47379900084306	5675.475693248812	1089.9560881272166	257.8344760328274	5689.688932998105	1081.1726371895766	272.955054427625	5703.555067460577	1071.0485904428203	277.30399545151715	5715.522709496308	1061.5876009997216	276.22065994323884	5659.339446103317	1085.2503328534592	227.76859280394987	5662.378924821786	1073.2879505717588	251.44763351395946	5671.864267381573	1063.6948237872589	263.0915777057469	5681.061073230384	1055.0721056093214	266.0392338905931	5691.134598350628	1045.9786122581963	264.95038526857724	5687.2137328902845	1311.6398478071055	-114.60451161886999	5744.053285590966	1365.715785682782	-49.14163729852637	5829.552030729021	1157.277778497612	23.938832536401854	5723.288464840336	1024.2389583824886	118.79650091911338	5752.651986864144	1053.144915791413	123.97153536284098	5772.908631891158	1056.0570577166993	147.39269011836748	5786.230352224949	1053.5372367779228	163.8987751361287	5796.664537257662	1047.5460157226112	177.82650965756588	5753.720115314928	1041.053535857229	123.4418266407707	5792.171049472168	1043.1289401153865	138.65457703732284	5812.582729699633	1036.2440583923517	158.3520206657966	5819.444924908664	1030.9354160914145	174.2591061415702	5821.193771345246	1025.84782302111	189.89498020125916	5749.945047406915	1028.216021425741	123.87736672867943	5785.408805616564	1023.2988629274148	138.94841211661344	5807.051248872159	1014.0750721476669	160.4617440655988	5815.027533600565	1006.8493210355831	179.66242425451958	5816.793928814973	1000.8834177877649	196.77546151329247	5746.363715106578	1019.1486116059501	123.70866481870954	5775.233375778063	1007.032360255835	136.81081697029393	5793.395679361779	997.2511728718983	155.55907510677307	5800.716978539378	989.3564198506281	174.0781537466679	5802.201326014156	983.3086574656203	190.16801350417188	5740.594578955303	1008.2025030299124	123.768350167273	5763.754112787397	990.5274022437005	135.53130024054184	5777.077261076106	980.0301772272231	150.4832948581552	5781.827028425054	972.9826515717396	163.96172022814704	5782.802123669063	966.8834479307724	178.19775861049646
313	1.3	5921.0129	906.651	56.2195	5914.221371547431	858.8097396815434	-15.733128566022005	5856.088794337625	446.9431081246972	-61.775749843456815	5960.900870665088	96.50941927120026	-191.05191177774682	5889.5895640367835	16.616594996944073	-32.72397775900349	5932.993526390951	925.5752980223177	140.88102114491312	5886.793895157724	527.1497689109483	261.2159005976765	5789.359938883713	99.21597440079016	298.88498530964034	5675.588823211427	5.614948120986213	177.45486844972822	5897.564170752235	1036.869807977583	1.7132077618346484	5847.64747054223	1111.2290095629598	-35.913075848536	5789.245173680115	1184.4714211237922	-73.59533478056855	5724.207747990354	1247.6843709344405	-106.99850212919291	5654.017115560998	1314.7846315666643	-141.98752879106948	5589.90840721503	1376.5475747082521	-172.4863223484744	5465.860272036914	1472.115801369191	-200.63395906647713	5668.431658607665	1274.2478697351755	-146.16850841990362	5609.960338010127	1198.0313427115548	-158.58038028857757	5683.922415961164	1112.394071321636	40.00078201750695	5664.724196955097	1100.879092781653	208.1883283814802	5691.903267957152	1132.0280921210058	226.541371296707	5718.7557835710295	1133.2901054220565	238.9759594189954	5734.645382710536	1130.1108973898956	248.12273282405968	5745.487550187281	1123.988948180185	256.1648985961978	5683.842608771737	1122.5141746390455	231.08926860602273	5704.713497325778	1131.1052145417048	263.05783030398356	5721.798502524101	1125.4641645965087	279.3377690488172	5734.49582666677	1118.2181535436484	283.3060675331294	5746.4054455140085	1109.6985771956458	282.4402822408731	5675.593813288434	1110.6255512640162	231.0184025915015	5691.48814477358	1112.5777465858837	262.1629491500008	5708.978369658113	1104.8111829269249	279.8071033086356	5723.743984574749	1095.2960264350022	284.5368662543318	5736.506313995102	1085.598224050526	283.56141615601115	5669.193226209362	1102.1001725397714	230.22268701898764	5677.763861235266	1096.7216676969995	257.64887820039127	5691.805412535859	1088.3015304673245	272.8545684517817	5705.409166582223	1078.246744644834	277.3249021904103	5717.106233139813	1068.7129317642764	276.36417493174474	5661.528406319386	1091.291390999673	227.8269101736321	5664.5357829271215	1080.0100787140152	251.7507268399374	5673.865853637201	1070.7149192816498	263.5368270706254	5682.862672308311	1062.1461255377092	266.6088246333604	5692.691558834977	1052.9900821471417	265.6491886591652	5687.206626439469	1311.7711277383837	-114.29561990368263	5744.003077369034	1365.812752117388	-49.24675924065582	5830.605944387454	1158.1839032177525	23.641227556585577	5724.377915060247	1027.4756611050718	120.90424839764921	5753.28914648346	1056.8284174506416	125.61633681186642	5773.751261791114	1060.0304802051778	148.632567765339	5787.304551427177	1057.717223089891	164.88100080625986	5798.007478048478	1051.9021944833848	178.61476192954285	5754.589042441989	1044.8206666207773	125.12573050531442	5793.221329771246	1047.6117495175245	139.8055255809884	5813.99377177755	1041.0864535546727	159.16234451230582	5821.122854509029	1035.8660343960146	174.89580396491556	5823.121340196898	1030.7601783705795	190.4136947139681	5751.059462120573	1031.964343882918	125.64745188814005	5786.8328242400685	1027.7351027517145	140.24527539682464	5808.901026496232	1018.8987155786597	161.40005599335302	5817.2147034560585	1011.7770140803383	180.39756755194784	5819.261736798882	1005.7899666726536	197.38457455683653	5747.645171660767	1022.866961692833	125.5529828450417	5776.93213330543	1011.3458225776075	138.29472971535455	5795.497867417168	1001.8961099995272	156.74465005574675	5803.16178117942	994.0984347183335	175.07528523836083	5804.918137153553	988.0292340634369	191.05021264067813	5742.077227893093	1011.853137389918	125.71566876874319	5765.737670730488	994.6876521682025	137.2105313853403	5779.432514209409	984.4435995697487	151.9473193519999	5784.455716413064	977.4609520693336	165.2997534357054	5785.6853088921425	971.339344395009	179.44057598100153
314	1.304	5921.0129	906.651	56.2195	5914.073721498515	858.797937445134	-15.697322248971272	5856.190178928415	446.89196185723955	-61.718710222692316	5961.200194077115	96.57607671513303	-191.1893165353833	5889.945058631178	16.651504764996176	-32.85248694656917	5933.150310425425	925.586257928638	140.84009938330766	5886.901984811448	527.1736340000213	261.20076126418047	5789.385846689128	99.26152537060952	298.84681611800426	5675.607689002419	5.666895242015338	177.41798926852428	5897.527873723819	1036.8741991987981	1.7358719881027342	5847.611517306182	1111.2727326432364	-35.81472162811447	5789.214875271677	1184.5618476383304	-73.41086320266146	5724.189254025144	1247.8224266150617	-106.72344131701601	5654.0092773675915	1314.9714005623607	-141.61388735324795	5589.915349291755	1376.7821838708974	-172.01973458329772	5465.809087273388	1472.3120458873414	-199.98808252347058	5668.409353842755	1274.4549396639816	-145.78776678910003	5610.263429669346	1198.7892450123252	-158.1863257373539	5684.9822626947	1114.0860707546872	39.93139352153891	5666.853824410588	1106.0894263417822	207.90442240951762	5694.26966720215	1137.4656343576814	225.338489077656	5720.926864736601	1138.9013247980997	237.5459662944889	5736.662633845593	1135.8873400784414	246.64829835345606	5747.361323768062	1129.9410059604543	254.75069842530695	5686.209109925093	1128.1568172359248	230.16285286917113	5707.193066763849	1137.4621430606537	261.7742679546905	5724.131216050408	1132.1817310832832	278.05602335173757	5736.619174763677	1124.9935478474333	282.09795140140847	5748.2758633333915	1116.4096064737062	281.3420128750537	5677.897217592455	1116.3572671809218	230.42561363255888	5693.867767768677	1119.0543740601552	261.4021975206483	5711.188769560302	1111.6906039991088	279.0938265738607	5725.697486044472	1102.2496604040539	283.93425157849407	5738.18097025843	1092.4835920812259	283.08960646937294	5671.4513633975685	1107.8784081125218	229.87284930853494	5680.05743584027	1103.2131910874396	257.3539414173443	5693.942175088467	1095.1524067809107	272.6477942307779	5707.29318233092	1085.17360000557	277.24971511244667	5718.7257192176185	1075.5776824504146	276.4237510382369	5663.71379416713	1097.088236488943	227.7821635771935	5666.716229928334	1086.478947861019	251.93803304187793	5675.906025511914	1077.4813330033664	263.86749235362026	5684.711375776879	1068.9726936530699	267.07066738976835	5694.301837940999	1059.7643605769965	266.25066619301924	5687.204949886285	1311.90324436253	-113.99642026359805	5743.949190775868	1365.9154917856556	-49.352691150117835	5831.596529882808	1159.0814240101947	23.33260072560912	5725.52782124707	1030.679473538355	122.9467360149625	5753.955208746678	1060.44186888782	127.2293869432953	5774.57902399917	1063.920809320226	149.8383505884375	5788.334069671323	1061.8086274477216	165.82236177860682	5799.281455658676	1056.1682908406185	179.35211042922322	5755.487289266819	1048.5253636456284	126.76498160890549	5794.251855895023	1052.0083635101403	140.91368085521836	5815.346016391627	1045.8360532122078	159.91812465906693	5822.718291320478	1040.7041232651072	175.4675336700367	5824.947193429703	1035.58317177867	190.8567088429878	5752.206489979583	1035.6613088276251	127.35822537373751	5788.243373657682	1032.1027969543675	141.4767154063645	5810.695318554031	1023.6481623247882	162.2581660511272	5819.318082195198	1016.6315757233555	181.03899341299433	5821.62485749557	1010.627211792254	197.88777068591668	5748.962864755413	1026.5423038669992	127.32768445428043	5778.629103326678	1015.6078808012209	139.694893918746	5797.562319104831	1006.4863307963025	157.83160414046085	5805.541901771404	998.787617541436	175.9597015601755	5807.550787885117	992.7009835499941	191.80772490969468	5743.601362397682	1015.4717224863085	127.58065855918122	5767.731207562448	998.814624654163	138.78696826178557	5781.770174776972	988.823646222328	153.2935946977221	5787.047745302445	981.908486766995	166.5082837549452	5788.514918626657	975.768733825383	180.54243759389263
